<svg xmlns="http://www.w3.org/2000/svg" version="1.1" xmlns:xlink="http://www.w3.org/1999/xlink" width="512" height="512" x="0" y="0" viewBox="0 0 384.44 328.734" style="enable-background:new 0 0 512 512" xml:space="preserve" class=""><circle r="192.22" cx="192.22" cy="164.367" fill="#57b597" shape="circle"></circle><g transform="matrix(0.7,0,0,0.7,57.66600036621094,49.3100909113884)"><path d="M98.354 226.18v4.403h62.363c.483-1.455.994-2.926 1.538-4.404zM266.145 226.18h-46.043c-.871 1.653-1.871 3.164-3 4.403h59.705l-8.523-3.248a9.31 9.31 0 0 1-2.14-1.156zM0 226.18h36.262v4.404H0zM384.44 230.583v-4.403h-46.217l-2.492 4.403zM346.46 113.69a9.693 9.693 0 0 0 1.874-5.73c0-5.385-4.366-9.75-9.75-9.75-2.427 0-4.64.892-6.347 2.358a23.918 23.918 0 0 1 14.222 13.123zM57.321 110.53c-4.021.543-5.983 1.3-6.822 1.725a10.32 10.32 0 0 1-5.752 7.637c.103 5.812.343 12.176.751 19.156a10.232 10.232 0 0 1-2.586 7.447c-.77.866-1.669 1.574-2.65 2.127v95.715c0 6.83 5.537 12.363 12.363 12.363 6.828 0 12.365-5.533 12.365-12.363V128.304h4.635v116.033c0 6.83 5.537 12.363 12.364 12.363 6.828 0 12.365-5.533 12.365-12.363V109.184c-4.813.553-10.476.557-16.938.558-7.007 0-14.253 0-20.095.789z" fill="#ffffff" opacity="1" data-original="#000000" class=""></path><path d="M27.23 140.117a8 8 0 0 0 8.453 7.52 8 8 0 0 0 7.52-8.454c-1.796-30.685-.38-49.8 1.774-61.588l2.278.335c-.705 3.844-1.336 8.53-1.797 14.21a42.405 42.405 0 0 1 5.361-1.409c8.068-1.587 17.91-1.588 26.593-1.589 4.041 0 9.286-.002 13.126-.275-.576-4.514-1.268-8.308-2.007-11.49l2.255-.425c.882 3.802 1.689 8.402 2.317 13.977-3.938.511-10.783.512-15.689.513-8.579 0-18.303.002-26.151 1.546-2.246.442-4.23.999-5.991 1.644-.435 6.33-.66 13.816-.563 22.649a7.987 7.987 0 0 0 3.612-6.228c.003-.043.006-.074.006-.089.2-.22 1.85-1.79 8.687-2.713 5.991-.808 13.317-.809 20.402-.81 13.99-.001 24.097-.003 29.21-5.596 2.094-2.29 3.093-5.264 2.814-8.372-.685-7.618-1.708-14.05-2.944-19.48-4.261-18.717-11.054-25.533-15.267-28.008a7.702 7.702 0 0 0-1.088-.68c-3.777 8.883-12.59 15.127-22.834 15.127-10.292 0-19.138-6.303-22.886-15.25-4.727 2.174-11.48 9.08-15.236 30.089-2.54 14.203-3.71 34.848-1.955 64.846z" fill="#ffffff" opacity="1" data-original="#000000" class=""></path><path d="M44.807 35.632c0 12.427 10.074 22.5 22.5 22.5 12.428 0 22.5-10.073 22.5-22.5s-10.072-22.5-22.5-22.5c-.522 0-1.039.024-1.552.06-.358-.79-.738-1.53-1.14-2.21-3.37-5.703-7.963-7.644-8.198-7.74l-.568 1.389c.05.02 4.035 1.73 7.134 6.587.417.653.815 1.365 1.188 2.136-.47.066-.939.141-1.4.235a22.303 22.303 0 0 0-2.774-1.656c-4.921-2.495-9.89-2.936-10.244-2.964l-.12 1.495c.075.006 4.046.359 8.316 2.207.93.403 1.873.88 2.794 1.437-.81.246-1.599.538-2.367.87-1.151-.342-2.421-.552-3.705-.674-4.471-.423-9.098.243-9.381.286l.22 1.483c.058-.008 3.42-.49 7.082-.389 1.231.034 2.488.138 3.674.345-6.838 3.86-11.46 11.19-11.46 19.603zm37.166 5.459-.706 2.916c-13.166-3.19-22.412 3.837-22.504 3.908l-1.849-2.363c.419-.329 10.428-8.002 25.059-4.461zM182.373 262.55h-.005c-1.444 0-2.822-.042-4.165-.103l.126 1.006.048.381-28.017 49.108c-2.737 4.798-1.067 10.905 3.73 13.642a9.998 9.998 0 0 0 13.64-3.73l29.668-52a10.002 10.002 0 0 0 1.237-6.197l-.308-2.467-.124-.993a93.365 93.365 0 0 1-15.83 1.353zM202.484 260.355l.843.836 2.871 2.849 17.27 57.564c1.299 4.332 5.272 7.13 9.574 7.13.951 0 1.92-.137 2.877-.425 5.29-1.586 8.292-7.162 6.705-12.45l-18-60a9.976 9.976 0 0 0-.775-1.832 9.97 9.97 0 0 0-.517-.86c-6.782 3.224-13.748 5.623-20.848 7.188zM223.642 249.69l-17.364-18.469-37.543-10.425c-7.18 16.309-10.335 35.21-10.335 35.21s29.937 11.242 65.242-6.316zM152.526 206.016c.202-2.187.64-4.445 1.226-6.557 2.043-7.355 6.473-15.377 12.238-13.776l2.468.685 1.303-4.693c5.485-19.751 20.505-32.888 33.482-29.284 2.538.705 4.808 2.005 6.785 3.779-.147-.781-.262-1.62-.34-2.524a31.717 31.717 0 0 1-.12-2.434c-5.69-3.837-12.865-4.22-18.519.12l-24.6 14.277a6.5 6.5 0 0 0-2.516 2.648l-14.792 28.75a6.499 6.499 0 0 0 1.774 8.09c.318.248.66.473 1.032.664.19.098.385.178.58.255zM218.497 186.209a7.503 7.503 0 0 0 1.822-.703c4.784-2.618 5.219-9.97 3.352-14.23-.403-.917-2.34-2.376-4.886-3.986a89.49 89.49 0 0 0-2.428-1.477c2.201 5.767 3.007 12.858 2.14 20.396zM168.535 152.531c9.32-5.852 9.075-23.224 14.714-28.55-.01-.291-.022-.582-.022-.876 0-2.666.447-5.228 1.26-7.622-7.29.3-15.526 3.874-18.98 19.126-3.703 16.357-9.837 17.563-14.19 16.262-4.351-1.302 4.29 9.778 17.217 1.66zM185.527 123.105c0 11.874 9.626 21.5 21.5 21.5s21.5-9.625 21.5-21.5-9.626-21.5-21.5-21.5-21.5 9.626-21.5 21.5zm37.87 4.341s-8.17 18.855-22.383 3.759c0 0 13.957 2.075 22.384-3.759zM316.213 264.658l-1.159-9.27 8.722 8.652 17.27 57.565c1.3 4.332 5.272 7.13 9.574 7.129.951 0 1.92-.137 2.877-.425 5.29-1.587 8.292-7.161 6.705-12.451l-18-60a9.996 9.996 0 0 0-2.535-4.226l-10.149-10.068-1.25-1.241-.587 1.037a7.483 7.483 0 0 1-6.503 3.792 7.431 7.431 0 0 1-2.66-.49l-26.209-9.99.239 1.91 3.407 27.252-28.017 49.108c-2.737 4.797-1.067 10.905 3.73 13.642a9.998 9.998 0 0 0 13.64-3.73l29.668-52a10.001 10.001 0 0 0 1.237-6.196zM290.889 177.167l2.814-7.386c3.421-8.974 12.18-15.003 21.797-15.003 2.83 0 5.613.514 8.274 1.528a23.287 23.287 0 0 1 4.421 2.253 20.571 20.571 0 0 1-.574-2.302c-.28-1.465-.456-3.125-.475-5.044-5.69-3.838-12.866-4.221-18.52.12l-24.598 14.276a6.5 6.5 0 0 0-3.226 5.24l-.087 1.477-.102 1.724c2.158.548 5.376 1.488 10.276 3.117zM337.482 185.713a7.16 7.16 0 0 0 2.265-1.662c3.01-3.28 3.091-9.148 1.502-12.774-.267-.608-1.208-1.454-2.55-2.423a49.267 49.267 0 0 0-2.718-1.803c2.985 5.56 3.714 12.29 1.501 18.662zM324.605 144.605c11.874 0 21.5-9.625 21.5-21.5s-9.626-21.5-21.5-21.5-21.5 9.626-21.5 21.5 9.626 21.5 21.5 21.5zm9.765-16.938s-8.17 18.854-22.383 3.758c0 0 13.956 2.075 22.383-3.759z" fill="#ffffff" opacity="1" data-original="#000000" class=""></path><path d="m275.563 175.83-9.066 41.841a5.17 5.17 0 0 0 3.212 5.926l49.629 18.915a5.17 5.17 0 0 0 6.341-2.285l14.643-25.881-13.698-6.14a8.752 8.752 0 0 1-4.592-4.814l-5.7-14.518c-7.197-2.797-14.68-5.567-21.243-7.848l3.33-8.738 2.47-1.433c.122 1.603.298 3.272.427 5.064.072.998.127 2.034.15 3.122.01.548.015 1.106.006 1.682a858.334 858.334 0 0 1 13.707 5.216l-6.502-16.561c-1.773-4.517.459-9.634 4.976-11.407a8.767 8.767 0 0 1 3.213-.61 8.75 8.75 0 0 1 8.194 5.585l9.467 24.113.572-1.501c4.124-10.82-1.324-22.978-12.144-27.102-10.82-4.124-22.979 1.324-27.102 12.144l-3.602 9.451c-9.506-3.227-16.482-5.172-16.688-4.22z" fill="#ffffff" opacity="1" data-original="#000000" class=""></path><path d="m335.303 195.33-12.384-31.544a6.5 6.5 0 0 0-12.101 4.751l13.354 34.015a6.502 6.502 0 0 0 3.393 3.556l29.864 13.385a6.501 6.501 0 0 0 5.316-11.863zM157.749 215.358l52.004 14.441c4.537 1.26 9.128-8.402 10.357-16.634l-9.297-4.167-2.127 7.66-2.89-.803 2.27-8.173a8.74 8.74 0 0 1-3.612-4.29l-2.046-5.209-29.459-8.18 1.919-6.91a51.341 51.341 0 0 1 3.651-9.458l4.792-2.78c.052.676.112 1.362.176 2.066.389 4.282.849 9.164-.437 15.735a49.881 49.881 0 0 1-.36 1.677l18.668 5.175-10.259-26.13c-1.773-4.517.46-9.634 4.976-11.407a8.767 8.767 0 0 1 3.214-.61 8.75 8.75 0 0 1 8.193 5.585l8.806 22.429c1.59-15.065-3.782-28.025-13.66-30.768-11.756-3.264-25.505 9.154-30.65 27.683l-1.92 6.91-4.684-1.301c-7.458-2.072-15.084 25.387-7.625 27.459zm14.296-21.85-3.345 12.045-2.89-.803 3.344-12.044z" fill="#ffffff" opacity="1" data-original="#000000" class=""></path><path d="m217.725 195.33-12.384-31.544a6.5 6.5 0 0 0-12.101 4.751l13.354 34.015a6.502 6.502 0 0 0 3.393 3.556l29.864 13.385a6.501 6.501 0 0 0 5.316-11.863zM122.39 12.49c-1.321-7.664-15.811-4.193-19.435 4.015 12.365-1.812 20.679 3.198 19.435-4.015zM101.222.682c-5.125-3.42-11.032 6.8-8.291 13.36C98.632 5.946 106.046 3.9 101.222.681zM101.688 29.52c8.65.354 13.668 4.831 13.747-.239.084-5.387-10.227-4.883-13.747.24z" fill="#ffffff" opacity="1" data-original="#000000" class=""></path></g></svg>