<svg xmlns="http://www.w3.org/2000/svg" version="1.1" xmlns:xlink="http://www.w3.org/1999/xlink" width="512" height="512" x="0" y="0" viewBox="0 0 64 64" style="enable-background:new 0 0 512 512" xml:space="preserve" class=""><circle r="32" cx="32" cy="32" fill="#57b597" shape="circle"></circle><g transform="matrix(0.7,0,0,0.7,9.59980782866478,9.59871075153351)"><path d="M3 29.816V47.5a3.5 3.5 0 0 0 7 0V36a1 1 0 0 1 1-1h4a1 1 0 0 1 1 1v3.5a3.5 3.5 0 0 0 7 0V35a7.009 7.009 0 0 0-7-7 1 1 0 0 1-1-1v-8.586l.586.586a3.5 3.5 0 0 0 4.828 0l5.672-5.672a3.121 3.121 0 0 0-4.414-4.414L18 12.586 15.274 9.86a6 6 0 1 0-10.033.78A6.96 6.96 0 0 0 1 17.062V27a3 3 0 0 0 2 2.816ZM10 3a4 4 0 1 1-4 4 4 4 0 0 1 4-4ZM3 17.062a4.975 4.975 0 0 1 3.143-4.642l.747-.3a5.955 5.955 0 0 0 7.134-.683l3.269 3.269a1 1 0 0 0 1.414 0l4.379-4.379a1.121 1.121 0 0 1 1.586 1.586L19 17.586a1.451 1.451 0 0 1-2 0l-2.293-2.293A1 1 0 0 0 13 16v11a3 3 0 0 0 3 3 5.006 5.006 0 0 1 5 5v4.5a1.5 1.5 0 0 1-3 0V36a3 3 0 0 0-3-3h-4a3 3 0 0 0-3 3v11.5a1.5 1.5 0 0 1-3 0V29.816A3 3 0 0 0 7 27V17H5v10a1 1 0 0 1-2 0Z" fill="#ffffff" opacity="1" data-original="#000000" class=""></path><path d="M16 63h6a1 1 0 0 0 1-1V52h2a1 1 0 0 0 .707-1.707l-6-6a1 1 0 0 0-1.414 0l-6 6A1 1 0 0 0 13 52h2v10a1 1 0 0 0 1 1Zm3-16.586L22.586 50H22a1 1 0 0 0-1 1v10h-4V51a1 1 0 0 0-1-1h-.586ZM34 63h6a1 1 0 0 0 1-1V41h2a1 1 0 0 0 .707-1.707l-6-6a1 1 0 0 0-1.414 0l-6 6A1 1 0 0 0 31 41h2v21a1 1 0 0 0 1 1Zm3-27.586L40.586 39H40a1 1 0 0 0-1 1v21h-4V40a1 1 0 0 0-1-1h-.586ZM51 63h6a1 1 0 0 0 1-1V29h2a1 1 0 0 0 .707-1.707l-6-6a1 1 0 0 0-1.414 0l-6 6A1 1 0 0 0 48 29h2v33a1 1 0 0 0 1 1Zm3-39.586L57.586 27H57a1 1 0 0 0-1 1v33h-4V28a1 1 0 0 0-1-1h-.586ZM62.943 7.669A1 1 0 0 0 62 7h-5.279l-1.773-5.316a1 1 0 0 0-1.9 0L51.279 7H46a1 1 0 0 0-.625 1.781l4.425 3.536-1.725 4.312a1 1 0 0 0 1.444 1.228L54 15.166l4.485 2.691a1 1 0 0 0 1.444-1.228L58.2 12.317l4.421-3.536a1 1 0 0 0 .322-1.112Zm-6.568 3.55a1 1 0 0 0-.3 1.152l.9 2.244-2.454-1.472a1 1 0 0 0-1.03 0l-2.454 1.472.9-2.244a1 1 0 0 0-.3-1.152L48.851 9H52a1 1 0 0 0 .948-.684L54 5.162l1.052 3.154A1 1 0 0 0 56 9h3.149ZM39.721 19l-1.773-5.316a1 1 0 0 0-1.9 0L34.279 19H29a1 1 0 0 0-.625 1.781l4.425 3.536-1.725 4.312a1 1 0 0 0 1.444 1.228L37 27.166l4.485 2.691a1 1 0 0 0 1.444-1.228L41.2 24.317l4.421-3.536A1 1 0 0 0 45 19Zm-.346 4.219a1 1 0 0 0-.3 1.152l.9 2.244-2.454-1.472a1 1 0 0 0-1.03 0l-2.454 1.472.9-2.244a1 1 0 0 0-.3-1.152L31.851 21H35a1 1 0 0 0 .948-.684L37 17.162l1.052 3.154A1 1 0 0 0 39 21h3.149Z" fill="#ffffff" opacity="1" data-original="#000000" class=""></path></g></svg>