<svg xmlns="http://www.w3.org/2000/svg" version="1.1" xmlns:xlink="http://www.w3.org/1999/xlink" width="512" height="512" x="0" y="0" viewBox="0 0 100 100" style="enable-background:new 0 0 512 512" xml:space="preserve" class=""><circle r="50" cx="50" cy="50" fill="#57b597" shape="circle"></circle><g transform="matrix(0.7,0,0,0.7,15,14.99993476867676)"><path d="m85.504 21.475 1.026-.235.235 1.026a.73.73 0 0 0 .873.547.73.73 0 0 0 .553-.874l-.235-1.026 1.026-.235a.733.733 0 0 0-.327-1.426l-1.025.236-.235-1.026a.734.734 0 0 0-.879-.547.733.733 0 0 0-.547.873l.235 1.026-1.026.235a.73.73 0 0 0-.548.873.73.73 0 0 0 .874.553zM90.753 61.552l1.026-.235.235 1.026a.73.73 0 0 0 .873.547.73.73 0 0 0 .553-.874l-.235-1.026 1.026-.235a.733.733 0 0 0 .546-.878.733.733 0 0 0-.873-.547l-1.026.234-.235-1.025a.733.733 0 0 0-1.426.326l.236 1.026-1.026.235a.73.73 0 0 0 .327 1.426zM16.44 25.01a.733.733 0 0 0-.558-.866l-1.03-.222.223-1.03a.733.733 0 0 0-1.43-.31l-.222 1.03-1.028-.222a.73.73 0 0 0-.309 1.43l1.028.222-.222 1.029a.73.73 0 0 0 .558.866.73.73 0 0 0 .872-.557l.222-1.029 1.029.222a.734.734 0 0 0 .867-.563zM62.254 79.293l-1.029-.222.223-1.029a.734.734 0 0 0-.564-.867.733.733 0 0 0-.866.558l-.222 1.029-1.029-.222a.73.73 0 0 0-.866.558.73.73 0 0 0 .557.871l1.029.223-.223 1.028a.729.729 0 0 0 .559.866.73.73 0 0 0 .871-.557l.222-1.029 1.03.223a.732.732 0 0 0 .309-1.43zM95 73.431H79.933a1 1 0 0 0 0 2H95a1 1 0 0 0 0-2zM72.627 73.431h-56.15a1 1 0 0 0 0 2h56.15a1 1 0 0 0 0-2zM9.767 73.431H5a1 1 0 0 0 0 2h4.767a1 1 0 0 0 0-2zM32.619 38.577l.75-.02-.74.01z" fill="#ffffff" opacity="1" data-original="#000000" class=""></path><path d="m32.739 45.877 4.8.95c.215 1.616.43 2.923 1.12 4.79 0 .01.01.02.01.03.44.2.87.42 1.29.66 2.52 1.45 5.4 2.22 8.31 2.22h.37c-2.8-2.47-4.56-6.09-4.56-10.12 0-7.48 6.07-13.55 13.54-13.55 7.48 0 13.55 6.07 13.55 13.55 0 5.91-3.8 10.94-9.08 12.78a5.047 5.047 0 0 1 .49 3.5l12.1-5.39c.12-.18.23-.37.34-.56.949-1.632 1.658-3.493 1.9-4.46l4.89-.08c.43-.01.79-.34.83-.77l.49-5.66a.842.842 0 0 0-.66-.9l-4.96-.97c-.346-2.539-1.247-5.061-2.25-6.82l3.58-3.71c.29-.31.31-.79.04-1.12l-3.65-4.36a.838.838 0 0 0-1.1-.17l-4.38 2.94c-1.932-1.427-3.754-2.45-6.24-3.21l-.09-5.29a.853.853 0 0 0-.77-.83l-5.66-.49a.841.841 0 0 0-.9.67l-1.01 5.2c-2.43.291-4.534.987-6.5 1.97-.07.04-.15.07-.22.1l-3.79-3.65a.827.827 0 0 0-1.11-.03l-4.35 3.65a.85.85 0 0 0-.16 1.12l2.88 4.27c-1.48 1.51-2.65 3.98-3.41 6.31v.02l-5.05.09c-.42.01-.77.34-.81.77l-.5 5.66c-.04.42.26.81.68.89z" fill="#ffffff" opacity="1" data-original="#000000" class=""></path><path d="M49.339 52.437c.2.21.41.4.62.59l1.7 1.5h6c.99 0 1.91.29 2.68.79l.66.12c1.753-.526 3.056-1.334 4.39-2.5.17-.16.34-.33.51-.5a9.747 9.747 0 0 0-4.42-3.77 6.95 6.95 0 0 0 3.09-5.77c0-3.85-3.11-6.95-6.95-6.95a6.94 6.94 0 0 0-6.94 6.95c0 2.41 1.23 4.53 3.09 5.78a9.723 9.723 0 0 0-4.43 3.76zM16.319 69.177c0 1.17.96 2.13 2.13 2.13h9.78c1.17 0 2.13-.96 2.13-2.13v-19.86c0-1.18-.96-2.14-2.13-2.14h-9.78c-1.17 0-2.13.96-2.13 2.14zm7.03-19.04a2.345 2.345 0 0 1 0 4.69c-1.31 0-2.36-1.04-2.36-2.35 0-1.3 1.05-2.34 2.36-2.34z" fill="#ffffff" opacity="1" data-original="#000000" class=""></path><path d="m79.528 55.329-19.13 8.517a4.947 4.947 0 0 1-2.74.831h-13.9a1 1 0 0 1 0-2h13.9c.622 0 1.218-.189 1.723-.546 0 0 .002 0 .003-.002l.001-.001a3.079 3.079 0 0 0 1.313-2.53c0-1.694-1.363-3.07-3.04-3.07h-9.39c-3.262 0-6.48-.86-9.308-2.484a16.78 16.78 0 0 0-6.601-2.123v16.115l10.123 3.826c6.282 2.372 13.546 1.993 19.577-1.048l19.989-10.09c1.462-.742 2.006-2.488 1.37-3.895-.67-1.49-2.413-2.163-3.89-1.5z" fill="#ffffff" opacity="1" data-original="#000000" class=""></path></g></svg>