<svg xmlns="http://www.w3.org/2000/svg" version="1.1" xmlns:xlink="http://www.w3.org/1999/xlink" width="512" height="512" x="0" y="0" viewBox="0 0 64 64" style="enable-background:new 0 0 512 512" xml:space="preserve" class=""><circle r="32" cx="32" cy="32" fill="#57b597" shape="circle"></circle><g transform="matrix(0.7,0,0,0.7,9.600008010864258,9.600000000000001)"><path d="M54.765 44.733 52 44.18v-2.7l3.377-2.7A17.555 17.555 0 0 0 62 25a9.011 9.011 0 0 0-9-9h-9.955a5.044 5.044 0 0 0-4.512 7.3L40 26.236v4.35l-5.707 5.707a1 1 0 1 0 1.414 1.414l4.313-4.313A9 9 0 0 0 44 40.478v3.778l-3.586 1.076A8.944 8.944 0 0 0 34 53.952V54H10v-2.441a7.02 7.02 0 0 1 5.627-6.865l2.983-.6a3.976 3.976 0 0 0 6.751.054l3.65 1.1a6.967 6.967 0 0 1 3.489 2.371 1 1 0 1 0 1.57-1.239 8.954 8.954 0 0 0-4.482-3.048l-3.611-1.084c0-.083.025-.163.025-.248v-2.525A9.008 9.008 0 0 0 32 31v-7.5l1.879-1.409A5.331 5.331 0 0 0 36 17.849V17.3a5.3 5.3 0 0 0-5.3-5.3H21a9.011 9.011 0 0 0-9 9v10a8.94 8.94 0 0 0 .831 3.755l-2.538 2.538a1 1 0 1 0 1.414 1.414l2.193-2.194a9.035 9.035 0 0 0 4.1 2.962V42c0 .061.015.117.018.177l-2.783.556A9.024 9.024 0 0 0 8 51.559V54H5a1 1 0 0 1-1-1v-6.586l4.707-4.707a1 1 0 0 0-1.414-1.414L4 43.586V18.414l4.707-4.707a1 1 0 0 0-1.414-1.414L4 15.586V5a1 1 0 0 1 1-1h10.586l-5.293 5.293a1 1 0 1 0 1.414 1.414L18.414 4h16.172l-2.293 2.293a1 1 0 1 0 1.414 1.414L37.414 4H39a1 1 0 0 1 1 1v8a1 1 0 0 0 2 0V5a3 3 0 0 0-3-3H5a3 3 0 0 0-3 3v48a3 3 0 0 0 3 3h29v5a1 1 0 0 0 1 1h26a1 1 0 0 0 1-1v-7.441a9.024 9.024 0 0 0-7.235-8.826ZM24 42a2 2 0 0 1-4 0v-2.059A8.935 8.935 0 0 0 21 40h2a8.935 8.935 0 0 0 1-.059ZM14 21a7.008 7.008 0 0 1 7-7h9.7a3.3 3.3 0 0 1 3.3 3.3v.546a3.321 3.321 0 0 1-1.321 2.642L30.667 22h-9.544a4.994 4.994 0 0 0-4.851 3.787l-.515 2.06A2.837 2.837 0 0 1 14 29.819Zm.06 10.869a4.827 4.827 0 0 0 3.64-3.537l.515-2.06A3 3 0 0 1 21.123 24H30v7a7.008 7.008 0 0 1-7 7h-2a7.006 7.006 0 0 1-6.94-6.131Zm26.261-9.463A3.045 3.045 0 0 1 43.045 18H53a7.008 7.008 0 0 1 7 7 15.569 15.569 0 0 1-5.872 12.217l-2.444 1.955-1.365-7.506a6.963 6.963 0 0 0-1.937-3.7l-.918-.918A6.954 6.954 0 0 0 42.515 25h-.9ZM42 33v-6h.515a4.967 4.967 0 0 1 3.535 1.464l.918.918a4.982 4.982 0 0 1 1.384 2.641L49.8 40H49a7.008 7.008 0 0 1-7-7Zm8 9v2a2 2 0 0 1-4 0v-2.525A8.936 8.936 0 0 0 49 42Zm10 18H36v-6.048a6.956 6.956 0 0 1 4.988-6.7l3.651-1.1a3.976 3.976 0 0 0 6.751-.052l2.983.6A7.02 7.02 0 0 1 60 53.559Z" fill="#ffffff" opacity="1" data-original="#000000" class=""></path><path d="M51 25a1 1 0 0 0 1-1v-1a1 1 0 0 1 2 0v.4a.994.994 0 0 1-.168.554l-.992 1.489a4.987 4.987 0 0 0-.84 2.768V29a1 1 0 0 0 2 0v-.789a2.989 2.989 0 0 1 .5-1.664l.992-1.488A2.989 2.989 0 0 0 56 23.4V23a3 3 0 0 0-6 0v1a1 1 0 0 0 1 1ZM53 31a1 1 0 0 0-1 1v1a1 1 0 0 0 2 0v-1a1 1 0 0 0-1-1ZM27 29a1 1 0 0 0 1-1v-1a1 1 0 0 0-2 0v1a1 1 0 0 0 1 1ZM22 28v-1a1 1 0 0 0-2 0v1a1 1 0 0 0 2 0ZM31.293 39.293l-1 1a1 1 0 1 0 1.414 1.414l1-1a1 1 0 0 0-1.414-1.414Z" fill="#ffffff" opacity="1" data-original="#000000" class=""></path></g></svg>