<!-- icon666.com - MILLIONS vector ICONS FREE --><svg fill="none" viewBox="0 0 24 24" xmlns="http://www.w3.org/2000/svg"><path d="m20.2895 3.67431.5303-.53033zm-16.61519 16.61519-.53033.5303h.00001zm4.89934-11.71584-.53033-.53033zm-4.83098-4.89935.53033.53034zm16.61523 16.61519.5303.5303zm-4.8994-11.71584-.5303.53033zm4.3007-4.36902c.2828.2828.4648.73979.4542 1.43772-.0107.7011-.2181 1.5791-.6391 2.58583-.8405 2.00981-2.472 4.38921-4.7145 6.63161l1.0607 1.0607c2.3457-2.3457 4.1049-4.8831 5.0377-7.11361.4656-1.11343.7404-2.18647.755-3.14165.0146-.95836-.235-1.86291-.8934-2.52126zm-4.8994 10.65516c-2.2424 2.2425-4.6218 3.874-6.6316 4.7145-1.00672.421-1.88472.6284-2.58582.6391-.69793.0106-1.15493-.1714-1.43774-.4542l-1.06065 1.0606c.65836.6584 1.5629.908 2.52126.8934.95519-.0146 2.02823-.2894 3.14166-.755 2.23049-.9328 4.76789-2.692 7.11359-5.0377zm-10.65515 4.8994c-.28281-.2828-.46486-.7398-.45421-1.4378.01069-.7011.21806-1.5791.63905-2.5858.84048-2.0098 2.47204-4.3892 4.71449-6.63161l-1.06066-1.06066c-2.3457 2.34567-4.10496 4.88307-5.0377 7.11357-.46561 1.1134-.74044 2.1865-.75501 3.1417-.01462.9583.23502 1.8629.89337 2.5212zm4.89933-10.65521c2.24242-2.24246 4.62182-3.87402 6.63162-4.7145 1.0067-.42099 1.8847-.62836 2.5858-.63905.698-.01065 1.155.1714 1.4378.45421l1.0606-1.06067c-.6583-.65835-1.5629-.90799-2.5212-.89337-.9552.01457-2.0283.2894-3.1417.75501-2.2305.93274-4.7679 2.69201-7.11358 5.03771zm-5.89163-5.96001c-.65836.65835-.908 1.5629-.89338 2.52126.01457.95518.2894 2.02822.75501 3.14165.93274 2.23051 2.692 4.76791 5.0377 7.11361l1.06066-1.0607c-2.24245-2.2424-3.87401-4.6218-4.71449-6.63161-.42099-1.00673-.62836-1.88472-.63905-2.58583-.01065-.69793.1714-1.15491.4542-1.43771zm4.89933 12.77652c2.34572 2.3457 4.88312 4.1049 7.11362 5.0377 1.1134.4656 2.1864.7404 3.1416.755.9584.0146 1.8629-.235 2.5213-.8934l-1.0607-1.0606c-.2828.2828-.7398.4648-1.4377.4542-.7011-.0107-1.5791-.2181-2.5858-.6391-2.0099-.8405-4.3892-2.472-6.63166-4.7145zm12.77652 4.8993c.6583-.6583.908-1.5629.8934-2.5212-.0146-.9552-.2894-2.0283-.7551-3.1417-.9327-2.2305-2.692-4.7679-5.0377-7.11357l-1.0606 1.06066c2.2424 2.24241 3.874 4.62181 4.7145 6.63161.421 1.0067.6283 1.8847.639 2.5858.0107.698-.1714 1.155-.4542 1.4378zm-4.8994-12.77647c-2.3457-2.3457-4.8831-4.10497-7.11353-5.03771-1.11343-.46561-2.18647-.74044-3.14166-.75501-.95836-.01462-1.86291.23502-2.52126.89337l1.06065 1.06067c.28281-.28281.73981-.46486 1.43774-.45421.7011.01069 1.5791.21806 2.58582.63905 2.00984.84048 4.38914 2.47204 6.63164 4.7145z" fill="rgb(0,0,0)" style="fill: rgb(87, 181, 151);"></path></svg>