<!-- icon666.com - MILLIONS vector ICONS FREE --><svg fill="none" viewBox="0 0 24 24" xmlns="http://www.w3.org/2000/svg"><path clip-rule="evenodd" d="m6.00339 7.37641c-.8462.80193-1.86446 2.33651-3.07295 4.93939-.17443.3757-.6204.5389-.99609.3645-.3757-.1745-.53886-.6204-.36443-.9961 1.22901-2.64711 2.34356-4.39379 3.40166-5.39654.53526-.50726 1.08935-.85631 1.67026-1.01095.59602-.15867 1.16817-.09833 1.69412.12823.99447.42839 1.78324 1.43421 2.43914 2.51442.6691 1.10211 1.2928 2.44554 1.8938 3.73994l.0115.0249c.6143 1.3229 1.2056 2.5943 1.8271 3.618.6391 1.0526 1.2214 1.6874 1.7503 1.9152.2358.1016.4635.1233.7149.0564.2665-.071.6074-.2551 1.0243-.6502.8462-.8019 1.8644-2.3365 3.0729-4.9394.1745-.3757.6204-.5389.9961-.3645.3757.1745.5389.6204.3644.9961-1.229 2.6471-2.3435 4.3938-3.4016 5.3965-.5353.5073-1.0894.8564-1.6703 1.011-.596.1587-1.1681.0983-1.6941-.1282-.9945-.4284-1.7833-1.4342-2.4391-2.5145-.6691-1.1021-1.2929-2.4455-1.8938-3.7399l-.0116-.0249c-.6142-1.3229-1.2055-2.59432-1.82702-3.61797-.63908-1.0526-1.22139-1.6874-1.75036-1.91527-.23576-.10156-.46342-.12325-.71481-.05633-.2665.07094-.60743.25509-1.02432.65018z" fill="rgb(0,0,0)" fill-rule="evenodd" style="fill: rgb(87, 181, 151);"></path></svg>